<svg xmlns="http://www.w3.org/2000/svg" style="display:none">
  <symbol id="play" viewBox="0 0 24 24"><path fill="currentColor" d="M7.05 3.606l13.49 7.788a.7.7 0 010 1.212L7.05 20.394A.7.7 0 016 19.788V4.212a.7.7 0 011.05-.606z"></path></symbol>
  <symbol id="pause" viewBox="0 0 24 24"><path fill="currentColor" d="M5.7 3a.7.7 0 00-.7.7v16.6a.7.7 0 00.7.7h2.6a.7.7 0 00.7-.7V3.7a.7.7 0 00-.7-.7H5.7zm10 0a.7.7 0 00-.7.7v16.6a.7.7 0 00.7.7h2.6a.7.7 0 00.7-.7V3.7a.7.7 0 00-.7-.7h-2.6z"></path></symbol>
  <symbol id="next" viewBox="0 0 24 24"><path fill="currentColor" d="M17.7 3a.7.7 0 00-.7.7v6.805L5.05 3.606A.7.7 0 004 4.212v15.576a.7.7 0 001.05.606L17 13.495V20.3a.7.7 0 00.7.7h1.6a.7.7 0 00.7-.7V3.7a.7.7 0 00-.7-.7h-1.6z"></path></symbol>
  <symbol id="prev" viewBox="0 0 24 24"><path fill="currentColor" d="M6.3 3a.7.7 0 01.7.7v6.805l11.95-6.9a.7.7 0 011.05.607v15.576a.7.7 0 01-1.05.606L7 13.495V20.3a.7.7 0 01-.7.7H4.7a.7.7 0 01-.7-.7V3.7a.7.7 0 01.7-.7h1.6z"></path></symbol>
  <symbol id="shuffle" viewBox="0 0 24 24"><path fill="currentColor" d="M13.151.922a.75.75 0 10-1.06 1.06L13.109 3H11.16a3.75 3.75 0 00-2.873 1.34l-6.173 7.24a2.25 2.25 0 01-1.714.787H0v2h.4a4.25 4.25 0 003.236-1.487l6.172-7.24a2.25 2.25 0 011.724-.804H13.1l-1.018 1.018a.75.75 0 001.06 1.06L15.208 4.5 13.15.922zm5.043 7.44c-.406.407-.406 1.067 0 1.474l1.018 1.018H11.16a2.25 2.25 0 01-1.724-.803l-6.172-7.24A4.25 4.25 0 000 1.323H.4a4.25 4.25 0 013.236 1.487l6.173 7.24A3.75 3.75 0 0011.16 11.25h2.949l-1.018 1.018a.75.75 0 101.06 1.06l2.06-2.059-1.017-1.018z"></path></symbol>
  <symbol id="repeat" viewBox="0 0 24 24"><path fill="currentColor" d="M0 4.75A3.75 3.75 0 013.75 1h8.5A3.75 3.75 0 0116 4.75v5a3.75 3.75 0 01-3.75 3.75H9.81l1.018 1.018a.75.75 0 11-1.06 1.06L6.939 12.75l2.829-2.828a.75.75 0 111.06 1.06L9.811 12h2.439a2.25 2.25 0 002.25-2.25v-5a2.25 2.25 0 00-2.25-2.25h-8.5A2.25 2.25 0 001.5 4.75v5A2.25 2.25 0 003.75 12H5v1.5H3.75A3.75 3.75 0 010 9.75v-5z" transform="translate(4 4)"></path></symbol>
  <symbol id="heart" viewBox="0 0 24 24"><path fill="currentColor" d="M15.724 4.22A4.313 4.313 0 0012.192 3.5c-1.287.22-2.344.877-3.192 1.952-.848-1.075-1.905-1.732-3.192-1.952A4.313 4.313 0 002.276 4.22C1.216 5.056.5 6.31.5 7.72c0 1.665.8 3.25 1.93 4.633 1.132 1.388 2.642 2.627 4.186 3.646a27.75 27.75 0 002.1 1.241l.043.023.012.007.003.002.004.001L9 17.63l.222-.358.004-.001.003-.002.012-.007.043-.023a27.75 27.75 0 002.1-1.241c1.544-1.02 3.054-2.258 4.186-3.646 1.13-1.383 1.93-2.968 1.93-4.633 0-1.41-.715-2.664-1.776-3.499z" transform="translate(3 3)"></path></symbol>
  <symbol id="heart-filled" viewBox="0 0 24 24"><path fill="currentColor" d="M15.724 4.22A4.313 4.313 0 0012.192 3.5c-1.287.22-2.344.877-3.192 1.952-.848-1.075-1.905-1.732-3.192-1.952A4.313 4.313 0 002.276 4.22C1.216 5.056.5 6.31.5 7.72c0 1.665.8 3.25 1.93 4.633 1.132 1.388 2.642 2.627 4.186 3.646a27.75 27.75 0 002.1 1.241l.043.023.012.007.003.002.004.001L9 17.63l.222-.358.004-.001.003-.002.012-.007.043-.023a27.75 27.75 0 002.1-1.241c1.544-1.02 3.054-2.258 4.186-3.646 1.13-1.383 1.93-2.968 1.93-4.633 0-1.41-.715-2.664-1.776-3.499z" transform="translate(3 3)"></path></symbol>
  <symbol id="search" viewBox="0 0 24 24"><path fill="currentColor" d="M10.533 1.279c-5.18 0-9.407 4.14-9.407 9.279s4.226 9.279 9.407 9.279c2.234 0 4.29-.77 5.907-2.058l4.353 4.353a1 1 0 101.414-1.414l-4.344-4.344a9.157 9.157 0 002.077-5.816c0-5.14-4.226-9.28-9.407-9.28zm-7.407 9.279c0-4.006 3.302-7.28 7.407-7.28s7.407 3.274 7.407 7.28-3.302 7.279-7.407 7.279-7.407-3.273-7.407-7.28z"></path></symbol>
  <symbol id="home" viewBox="0 0 24 24"><path fill="currentColor" d="M12.5 3.247a1 1 0 00-1 0L4 7.577V20h4.5v-6a1 1 0 011-1h4a1 1 0 011 1v6H19V7.577l-7.5-4.33zm-2-1.732a3 3 0 013 0l7.5 4.33a2 2 0 011 1.732V21a1 1 0 01-1 1h-6.5a1 1 0 01-1-1v-6h-2v6a1 1 0 01-1 1H3a1 1 0 01-1-1V7.577a2 2 0 011-1.732l7.5-4.33z"></path></symbol>
  <symbol id="home-filled" viewBox="0 0 24 24"><path fill="currentColor" d="M13.5 1.515a3 3 0 00-3 0L3 5.845a2 2 0 00-1 1.732V21a1 1 0 001 1h6v-7h4v7h6a1 1 0 001-1V7.577a2 2 0 00-1-1.732l-7.5-4.33z"></path></symbol>
  <symbol id="library" viewBox="0 0 24 24"><path fill="currentColor" d="M14.5 2.134a1 1 0 011 0l6 3.464a1 1 0 01.5.866V21a1 1 0 01-1 1h-6a1 1 0 01-1-1V3a1 1 0 01.5-.866zM16 4.732V20h4V7.041l-4-2.309zM3 22a1 1 0 01-1-1V3a1 1 0 012 0v18a1 1 0 01-1 1zm6 0a1 1 0 01-1-1V3a1 1 0 012 0v18a1 1 0 01-1 1z"></path></symbol>
  <symbol id="plus" viewBox="0 0 24 24"><path fill="currentColor" d="M11.75 2a.75.75 0 01.75.75V11h8.25a.75.75 0 010 1.5H12.5v8.25a.75.75 0 01-1.5 0V12.5H2.75a.75.75 0 010-1.5H11V2.75a.75.75 0 01.75-.75z"></path></symbol>
  <symbol id="more" viewBox="0 0 24 24"><path fill="currentColor" d="M4.5 13.5a1.5 1.5 0 100-3 1.5 1.5 0 000 3zm15 0a1.5 1.5 0 100-3 1.5 1.5 0 000 3zm-7.5 0a1.5 1.5 0 100-3 1.5 1.5 0 000 3z"></path></symbol>
  <symbol id="download" viewBox="0 0 24 24"><path fill="currentColor" d="M12 2a1 1 0 011 1v10.586l3.293-3.293a1 1 0 111.414 1.414l-5 5a1 1 0 01-1.414 0l-5-5a1 1 0 111.414-1.414L11 13.586V3a1 1 0 011-1zM3 20a1 1 0 011-1h16a1 1 0 110 2H4a1 1 0 01-1-1z"></path></symbol>
  <symbol id="check" viewBox="0 0 24 24"><path fill="currentColor" d="M10.03 17.14l-4.39-4.4 1.41-1.41 2.98 2.98L17.36 6l1.41 1.41-8.74 9.73z" transform="translate(-1)"></path></symbol>
  <symbol id="mic" viewBox="0 0 24 24"><path fill="currentColor" d="M12 1a4 4 0 00-4 4v6a4 4 0 008 0V5a4 4 0 00-4-4zM6 11a1 1 0 10-2 0 8 8 0 007 7.94V21H8a1 1 0 100 2h8a1 1 0 100-2h-3v-2.06A8 8 0 0020 11a1 1 0 10-2 0 6 6 0 01-12 0z"></path></symbol>
  <symbol id="volume" viewBox="0 0 24 24"><path fill="currentColor" d="M9.741.85a.75.75 0 01.375.65v13a.75.75 0 01-1.125.65l-6.925-4a3.642 3.642 0 01-1.33-4.967 3.639 3.639 0 011.33-1.332l6.925-4a.75.75 0 01.75 0zm4.665 1.9a9.5 9.5 0 010 16.5.75.75 0 11-.75-1.3 8 8 0 000-13.9.75.75 0 01.75-1.3zM11.5 6.5v3c1.25 0 2.5 1 2.5 2.5s-1.25 2.5-2.5 2.5v3c3 0 5.5-2.5 5.5-5.5s-2.5-5.5-5.5-5.5z" transform="translate(3 3)"></path></symbol>
  <symbol id="queue" viewBox="0 0 24 24"><path fill="currentColor" d="M15 15H2v2h13v-2zm0-4H2v2h13v-2zm0-4H2v2h13V7zm4 4v6l5-3-5-3z"></path></symbol>
  <symbol id="devices" viewBox="0 0 24 24"><path fill="currentColor" d="M6 2.75C6 1.784 6.784 1 7.75 1h8.5c.966 0 1.75.784 1.75 1.75v17.5A1.75 1.75 0 0116.25 22h-8.5A1.75 1.75 0 016 20.25V2.75zm1.75-.25a.25.25 0 00-.25.25v17.5c0 .138.112.25.25.25h8.5a.25.25 0 00.25-.25V2.75a.25.25 0 00-.25-.25h-8.5zM13 18a1 1 0 11-2 0 1 1 0 012 0z"></path></symbol>
  <symbol id="picture-in-picture" viewBox="0 0 24 24"><path fill="currentColor" d="M21 3H3a1 1 0 00-1 1v16a1 1 0 001 1h18a1 1 0 001-1V4a1 1 0 00-1-1zm-1 15h-8v-6h8v6z"></path></symbol>
  <symbol id="fullscreen" viewBox="0 0 24 24"><path fill="currentColor" d="M21.707 2.293a1 1 0 00-.707-.293h-5a1 1 0 000 2h2.586l-3.293 3.293a1 1 0 101.414 1.414L20 5.414V8a1 1 0 102 0V3a1 1 0 00-.293-.707zM3 22a1 1 0 01-1-1v-5a1 1 0 112 0v2.586l3.293-3.293a1 1 0 111.414 1.414L5.414 20H8a1 1 0 110 2H3z"></path></symbol>
  <symbol id="lyrics" viewBox="0 0 24 24"><path fill="currentColor" d="M13.426 2.574a2.831 2.831 0 00-4.797 2.55L3.323 10.432a2.904 2.904 0 00-.54 3.117l.308.773a5.946 5.946 0 007.82 3.281l.977-.391a2.904 2.904 0 001.746-2.598V9.1l5.059-5.249a2.831 2.831 0 00-.5-4.422z"></path></symbol>
  <symbol id="chevron-right" viewBox="0 0 24 24"><path fill="currentColor" d="M9.47 5.47a.75.75 0 011.06 0l6 6a.75.75 0 010 1.06l-6 6a.75.75 0 11-1.06-1.06L14.94 12 9.47 6.53a.75.75 0 010-1.06z"></path></symbol>
  <symbol id="chevron-left" viewBox="0 0 24 24"><path fill="currentColor" d="M14.53 5.47a.75.75 0 010 1.06L9.06 12l5.47 5.47a.75.75 0 11-1.06 1.06l-6-6a.75.75 0 010-1.06l6-6a.75.75 0 011.06 0z"></path></symbol>
  <symbol id="arrow-right" viewBox="0 0 24 24"><path fill="currentColor" d="M12.97 4.22a.75.75 0 011.06 0l7.25 7.25a.75.75 0 010 1.06l-7.25 7.25a.75.75 0 11-1.06-1.06l5.97-5.97H3a.75.75 0 010-1.5h15.94l-5.97-5.97a.75.75 0 010-1.06z"></path></symbol>
  <symbol id="close" viewBox="0 0 24 24"><path fill="currentColor" d="M1.47 1.47a.75.75 0 011.06 0L8 6.94l5.47-5.47a.75.75 0 111.06 1.06L9.06 8l5.47 5.47a.75.75 0 11-1.06 1.06L8 9.06l-5.47 5.47a.75.75 0 01-1.06-1.06L6.94 8 1.47 2.53a.75.75 0 010-1.06z" transform="translate(4 4)"></path></symbol>
  <symbol id="check-filled" viewBox="0 0 24 24"><circle cx="12" cy="12" r="10" fill="#1ed760"></circle><path fill="#000" d="M9.57 16.27l-3.3-3.3 1.42-1.42 1.88 1.89 5.74-5.74 1.42 1.42-7.16 7.15z"></path></symbol>
  <symbol id="equalizer" viewBox="0 0 24 24"><path fill="currentColor" d="M5 21V10h3v11H5zm5.5 0V3h3v18h-3zm5.5 0v-8h3v8h-3z"></path></symbol>
  <symbol id="mic-fill" viewBox="0 0 24 24"><path fill="currentColor" d="M12 1a4 4 0 00-4 4v6a4 4 0 008 0V5a4 4 0 00-4-4zM6 11a1 1 0 10-2 0 8 8 0 007 7.94V21H8a1 1 0 100 2h8a1 1 0 100-2h-3v-2.06A8 8 0 0020 11a1 1 0 10-2 0 6 6 0 01-12 0z"></path></symbol>
</svg>